<?xml version="1.0" standalone="no"?><!DOCTYPE svg PUBLIC "-//W3C//DTD SVG 1.1//EN" "http://www.w3.org/Graphics/SVG/1.1/DTD/svg11.dtd"><svg t="1783522111578" class="icon" viewBox="0 0 1024 1024" version="1.1" xmlns="http://www.w3.org/2000/svg" p-id="4173" xmlns:xlink="http://www.w3.org/1999/xlink" width="200" height="200"><path d="M842.26025426 129.15003204H181.73974574c-64.08387241 0-116.20122463 52.11735092-116.20122463 116.20122333V779.75092358c0 64.08387241 52.11735092 116.20122463 116.20122463 116.20122461h660.36305383c64.08387241 0 116.20122463-52.11735092 116.20122463-116.20122461V245.35125537c0-64.08387241-52.11735092-116.20122463-116.04376994-116.20122333zM181.73974574 182.84192468h660.36305383c34.48247743 0 62.50933068 28.02685326 62.50933069 62.50933069V343.60269711H119.23041505v-98.25144174c0-34.48247743 28.02685326-62.50933068 62.50933069-62.50933069z m660.52050852 659.41832958H181.73974574c-34.48247743 0-62.50933068-28.02685326-62.50933069-62.50933068V397.13713635h785.5391699v382.61378723c0 34.48247743-28.02685326 62.50933068-62.50933069 62.50933068z" fill="#515151" p-id="4174"></path><path d="M200.16189138 263.30103824m-26.76721961 0a26.76721962 26.76721962 0 1 0 53.53443924 0 26.76721962 26.76721962 0 1 0-53.53443924 0Z" fill="#515151" p-id="4175"></path><path d="M289.91080447 263.30103824m-26.76721963 0a26.76721962 26.76721962 0 1 0 53.53443925 0 26.76721962 26.76721962 0 1 0-53.53443925 0Z" fill="#515151" p-id="4176"></path><path d="M379.81717095 263.30103824m-26.76721962 0a26.76721962 26.76721962 0 1 0 53.53443925 0 26.76721962 26.76721962 0 1 0-53.53443925 0Z" fill="#515151" p-id="4177"></path><path d="M330.06163391 519.32162237c-10.39197977-10.39197977-27.39703709-10.39197977-37.94647025 0L226.92911101 584.50767502l-11.33670531 11.33670402-10.70688785 10.70688784c-8.65998335 8.65998335-8.65998335 22.83086403 0 31.64830079l10.70688785 10.70688784 11.33670531 11.33670531 65.18605265 65.18605265c10.39197977 10.39197977 27.39703709 10.39197977 37.94647025 0 10.39197977-10.39197977 10.39197977-27.39703709 0-37.94647024L264.87558126 622.29669057l65.18605265-65.18605264c10.39197977-10.39197977 10.39197977-27.2395824 0-37.78901556zM808.25013962 595.84437904l-76.52275668-76.52275667c-10.39197977-10.39197977-27.39703709-10.39197977-37.94647025 0-10.39197977 10.39197977-10.39197977 27.39703709 0 37.94647025l65.18605266 65.18605264-65.18605266 65.18605136c-10.39197977 10.39197977-10.39197977 27.39703709 0 37.94647025 10.39197977 10.39197977 27.39703709 10.39197977 37.94647025 0l65.18605265-65.18605135 11.33670403-11.33670531 10.70688785-10.70688786c8.65998335-8.65998335 8.65998335-22.83086403 0-31.64830076l-10.70688785-10.86434255zM593.64001985 464.99991097c-13.06870173-6.77053225-29.28648689-1.73199641-36.05701915 11.49416001l-138.55972586 267.19983345c-6.77053225 13.06870173-1.73199641 29.28648689 11.49416 36.05701915 13.06870173 6.77053225 29.28648689 1.73199641 36.05701914-11.49415871l138.55972459-267.19983347c6.77053225-13.06870173 1.57454172-29.28648689-11.49415872-36.05702043z" fill="#515151" p-id="4178"></path></svg>