<?xml version="1.0" standalone="no"?><!DOCTYPE svg PUBLIC "-//W3C//DTD SVG 1.1//EN" "http://www.w3.org/Graphics/SVG/1.1/DTD/svg11.dtd"><svg t="1783521446550" class="icon" viewBox="0 0 1024 1024" version="1.1" xmlns="http://www.w3.org/2000/svg" p-id="2172" xmlns:xlink="http://www.w3.org/1999/xlink" width="200" height="200"><path d="M752 224h-576c-9.6 0-16 6.4-16 16v448c0 9.6 6.4 16 16 16H416v64H256v64h416v-64h-160v-64h240c9.6 0 16-6.4 16-16v-448c0-9.6-6.4-16-16-16zM704 601.6c0 3.2-3.2 6.4-6.4 6.4H230.4c-3.2 0-6.4-3.2-6.4-6.4V297.6c0-6.4 3.2-9.6 6.4-9.6h464c6.4 0 9.6 3.2 9.6 6.4v307.2zM0 832h128v-224H0v224z m32-192h64v160H32v-160zM800 544v288h224v-288h-224z m192 256h-160v-224h160v224z" p-id="2173" fill="#bd34fe"></path></svg>